<svg width="22" height="26" viewBox="0 0 22 26" fill="none" xmlns="http://www.w3.org/2000/svg">
<path d="M10.7023 7.49748C9.68027 7.49748 8.09827 6.33548 6.43227 6.37748C4.23427 6.40548 2.21827 7.65148 1.08427 9.62547C-1.19773 13.5875 0.496274 19.4395 2.72227 22.6595C3.81427 24.2275 5.10227 25.9915 6.81027 25.9355C8.44827 25.8655 9.06427 24.8715 11.0523 24.8715C13.0263 24.8715 13.5863 25.9355 15.3223 25.8935C17.0863 25.8655 18.2063 24.2975 19.2843 22.7155C20.5303 20.8955 21.0483 19.1315 21.0763 19.0335C21.0343 19.0195 17.6463 17.7175 17.6043 13.7975C17.5763 10.5215 20.2783 8.95348 20.4043 8.88348C18.8643 6.62948 16.4983 6.37748 15.6723 6.32148C13.5163 6.15348 11.7103 7.49748 10.7023 7.49748ZM14.3423 4.19348C15.2523 3.10148 15.8543 1.57548 15.6863 0.0634766C14.3843 0.119477 12.8163 0.931476 11.8783 2.02348C11.0383 2.98948 10.3103 4.54348 10.5063 6.02748C11.9483 6.13948 13.4323 5.28548 14.3423 4.19348Z" fill="white"/>
</svg>
