<svg xmlns="http://www.w3.org/2000/svg" xmlns:xlink="http://www.w3.org/1999/xlink" width="500" zoomAndPan="magnify" viewBox="0 0 375 374.999991" height="500" preserveAspectRatio="xMidYMid meet" version="1.0"><defs><clipPath id="2909c74efb"><path d="M 168 101.675781 L 266.148438 101.675781 L 266.148438 243 L 168 243 Z M 168 101.675781 " clip-rule="nonzero"/></clipPath><clipPath id="b6d8b40238"><path d="M 108.648438 132 L 207 132 L 207 273.320312 L 108.648438 273.320312 Z M 108.648438 132 " clip-rule="nonzero"/></clipPath></defs><g clip-path="url(#2909c74efb)"><path fill="#ee1e80" d="M 266.261719 102.34375 C 261.726562 109.570312 257.1875 116.796875 252.644531 124.023438 L 245.828125 134.839844 L 238.984375 145.65625 L 225.277344 167.277344 L 212.414062 187.527344 L 228.972656 211.84375 L 233.332031 218.234375 C 234.792969 220.363281 236.238281 222.496094 237.707031 224.621094 L 246.515625 237.34375 L 250.078125 242.488281 L 203.109375 242.804688 L 202.121094 241.035156 C 200.671875 238.445312 199.257812 235.835938 197.832031 233.238281 L 196.761719 231.28125 L 195.707031 229.320312 L 193.589844 225.402344 L 189.40625 217.546875 L 187.269531 213.492188 C 186.457031 214.726562 185.644531 215.960938 184.828125 217.191406 L 182.332031 220.929688 L 179.808594 224.652344 L 177.289062 228.363281 L 174.730469 232.0625 C 173.019531 234.527344 171.28125 236.972656 169.519531 239.402344 C 169.46875 239.488281 169.394531 239.546875 169.296875 239.570312 C 169.199219 239.597656 169.105469 239.582031 169.019531 239.53125 C 168.933594 239.480469 168.875 239.40625 168.851562 239.3125 C 168.824219 239.214844 168.835938 239.121094 168.886719 239.035156 C 170.167969 236.324219 171.484375 233.628906 172.835938 230.949219 L 174.855469 226.933594 L 176.902344 222.929688 L 178.96875 218.9375 L 181.050781 214.960938 C 182.453125 212.316406 183.855469 209.667969 185.277344 207.035156 L 187.328125 203.230469 L 189.769531 207.066406 C 191.367188 209.570312 192.921875 212.089844 194.5 214.605469 L 199.183594 222.171875 L 201.503906 225.96875 L 202.664062 227.859375 L 203.816406 229.75 C 204.980469 231.675781 206.144531 233.601562 207.300781 235.527344 C 208.21875 235.527344 236.296875 235.636719 237.414062 235.65625 L 232.589844 227.996094 C 231.21875 225.8125 229.820312 223.644531 228.4375 221.46875 L 224.269531 214.949219 L 207.582031 188.882812 L 206.714844 187.527344 L 207.582031 186.269531 L 222.050781 165.148438 L 236.550781 144.050781 L 243.800781 133.507812 L 251.074219 122.976562 C 255.921875 115.945312 260.785156 108.929688 265.664062 101.933594 C 265.71875 101.851562 265.792969 101.800781 265.890625 101.785156 C 265.988281 101.765625 266.078125 101.78125 266.160156 101.835938 C 266.242188 101.890625 266.292969 101.964844 266.3125 102.0625 C 266.332031 102.160156 266.316406 102.25 266.261719 102.332031 Z M 266.261719 102.34375 " fill-opacity="1" fill-rule="nonzero"/></g><g clip-path="url(#b6d8b40238)"><path fill="#ee1e80" d="M 202.191406 144.199219 L 200.171875 148.21875 L 198.125 152.21875 L 196.058594 156.210938 L 193.976562 160.1875 C 192.574219 162.835938 191.175781 165.484375 189.75 168.113281 L 187.699219 171.917969 L 185.257812 168.082031 C 183.660156 165.582031 182.105469 163.058594 180.527344 160.542969 L 175.839844 152.980469 L 173.519531 149.179688 L 172.359375 147.289062 L 171.210938 145.398438 C 170.050781 143.472656 168.894531 141.542969 167.742188 139.621094 C 166.824219 139.621094 138.746094 139.507812 137.625 139.488281 L 142.4375 147.148438 C 143.8125 149.335938 145.210938 151.503906 146.59375 153.679688 L 150.761719 160.199219 L 167.449219 186.265625 L 168.3125 187.621094 L 167.449219 188.882812 L 152.980469 209.957031 L 138.480469 231.007812 L 131.230469 241.53125 L 123.949219 252.039062 C 119.105469 259.050781 114.246094 266.046875 109.363281 273.03125 C 109.308594 273.109375 109.234375 273.160156 109.140625 273.179688 C 109.046875 273.199219 108.960938 273.183594 108.878906 273.132812 C 108.796875 273.078125 108.742188 273.003906 108.71875 272.910156 C 108.699219 272.8125 108.714844 272.722656 108.765625 272.636719 C 113.304688 265.421875 117.84375 258.210938 122.382812 251.003906 L 129.199219 240.195312 L 136.042969 229.402344 L 149.75 207.820312 L 162.613281 187.617188 L 146.0625 163.300781 L 141.703125 156.910156 C 140.246094 154.785156 138.800781 152.648438 137.328125 150.527344 L 128.523438 137.800781 L 124.964844 132.65625 L 171.929688 132.339844 L 172.921875 134.125 C 174.371094 136.71875 175.789062 139.324219 177.210938 141.925781 L 178.28125 143.878906 L 181.457031 149.75 L 185.621094 157.597656 L 187.757812 161.648438 L 190.199219 157.957031 L 192.695312 154.21875 L 195.21875 150.496094 L 197.738281 146.78125 L 200.296875 143.085938 C 202.003906 140.621094 203.742188 138.175781 205.507812 135.746094 C 205.5625 135.671875 205.636719 135.625 205.726562 135.605469 C 205.816406 135.589844 205.902344 135.601562 205.980469 135.652344 C 206.0625 135.699219 206.113281 135.765625 206.140625 135.855469 C 206.167969 135.941406 206.164062 136.027344 206.125 136.113281 C 204.855469 138.816406 203.542969 141.511719 202.191406 144.199219 Z M 202.191406 144.199219 " fill-opacity="1" fill-rule="nonzero"/></g></svg>