<svg width="29" height="28" viewBox="0 0 29 28" fill="none" xmlns="http://www.w3.org/2000/svg">
<g clip-path="url(#clip0_60086_1309)">
<path d="M13.2403 13.3486L1.5166 25.6315C1.64826 26.0981 1.88485 26.5284 2.20829 26.8895C2.53172 27.2506 2.93345 27.533 3.38275 27.7151C3.83205 27.8972 4.31703 27.9741 4.80062 27.94C5.2842 27.9059 5.7536 27.7617 6.17291 27.5184L19.3643 20.0055L13.2403 13.3486Z" fill="#EA4335"/>
<path d="M25.0951 11.2606L19.3907 7.99316L12.9697 13.6278L19.4169 19.9877L25.0778 16.7553C25.5793 16.4927 25.9993 16.0978 26.2924 15.6135C26.5855 15.1292 26.7405 14.574 26.7405 14.0079C26.7405 13.4418 26.5855 12.8865 26.2924 12.4022C25.9993 11.9179 25.5793 11.5231 25.0778 11.2605L25.0951 11.2606Z" fill="#FBBC04"/>
<path d="M1.51653 2.32373C1.44567 2.58571 1.41039 2.85603 1.41165 3.12742V24.8276C1.41239 25.0989 1.44763 25.369 1.51653 25.6314L13.6421 13.663L1.51653 2.32373Z" fill="#4285F4"/>
<path d="M13.3277 13.9776L19.3905 7.99346L6.21664 0.445533C5.72099 0.15525 5.15725 0.00152196 4.58285 6.06802e-06C3.15742 -0.00276425 1.90425 0.943299 1.5166 2.3151L13.3277 13.9776Z" fill="#34A853"/>
</g>
<defs>
<clipPath id="clip0_60086_1309">
<rect width="28" height="28" fill="white" transform="translate(0.0761719)"/>
</clipPath>
</defs>
</svg>
