<svg width="19" height="22" viewBox="0 0 19 22" fill="none" xmlns="http://www.w3.org/2000/svg">
<path d="M17.4422 11.0782L17.0216 11.3486L17.4422 11.0782ZM18.5496 12.8012L18.9702 12.5308L18.5496 12.8012ZM1.45036 12.8012L1.02975 12.5308H1.02975L1.45036 12.8012ZM2.5578 11.0782L2.9784 11.3486L2.5578 11.0782ZM17.0296 17.0116L16.8935 16.5304V16.5304L17.0296 17.0116ZM2.97036 17.0116L3.10645 16.5304L3.10645 16.5304L2.97036 17.0116ZM6.35179 19.2418L6.41892 18.7464C6.21709 18.719 6.01885 18.8168 5.91774 18.9936C5.81664 19.1705 5.83289 19.3909 5.95881 19.551L6.35179 19.2418ZM13.6482 19.2418L14.0412 19.551C14.1671 19.3909 14.1834 19.1705 14.0823 18.9936C13.9812 18.8168 13.7829 18.719 13.5811 18.7464L13.6482 19.2418ZM16.2491 8V8.7041H17.2491V8H16.2491ZM17.0216 11.3486L18.129 13.0715L18.9702 12.5308L17.8628 10.8079L17.0216 11.3486ZM1.87096 13.0715L2.9784 11.3486L2.13719 10.8079L1.02975 12.5308L1.87096 13.0715ZM3.75087 8.7041V8H2.75087V8.7041H3.75087ZM16.8935 16.5304C12.3801 17.8071 7.61985 17.8071 3.10645 16.5304L2.83427 17.4927C7.52563 18.8197 12.4744 18.8197 17.1657 17.4927L16.8935 16.5304ZM2.9784 11.3486C3.48276 10.5639 3.75087 9.64384 3.75087 8.7041H2.75087C2.75087 9.45434 2.53667 10.1864 2.13719 10.8079L2.9784 11.3486ZM16.2491 8.7041C16.2491 9.64384 16.5172 10.5639 17.0216 11.3486L17.8628 10.8079C17.4633 10.1864 17.2491 9.45434 17.2491 8.7041H16.2491ZM1.02975 12.5308C-0.153926 14.3723 0.73525 16.8989 2.83427 17.4927L3.10645 16.5304C1.68684 16.1289 1.03157 14.3774 1.87096 13.0715L1.02975 12.5308ZM18.129 13.0715C18.9684 14.3774 18.3132 16.1289 16.8935 16.5304L17.1657 17.4927C19.2648 16.8989 20.1539 14.3723 18.9702 12.5308L18.129 13.0715ZM10 1.5C13.4343 1.5 16.2491 4.39279 16.2491 8H17.2491C17.2491 3.87522 14.0206 0.5 10 0.5V1.5ZM10 0.5C5.97937 0.5 2.75087 3.87522 2.75087 8H3.75087C3.75087 4.39279 6.56574 1.5 10 1.5V0.5ZM5.95881 19.551C6.89219 20.7375 8.35684 21.5 10 21.5V20.5C8.67153 20.5 7.49357 19.8846 6.74477 18.9327L5.95881 19.551ZM6.28466 19.7373C8.75099 20.0715 11.249 20.0715 13.7153 19.7373L13.5811 18.7464C11.2039 19.0685 8.79615 19.0685 6.41892 18.7464L6.28466 19.7373ZM10 21.5C11.6432 21.5 13.1078 20.7375 14.0412 19.551L13.2552 18.9327C12.5064 19.8846 11.3285 20.5 10 20.5V21.5Z" fill="#1A1B21"/>
</svg>
